<?xml version="1.0" encoding="utf-8"?>
<!-- Generator: Adobe Illustrator 25.0.0, SVG Export Plug-In . SVG Version: 6.00 Build 0)  -->
<svg version="1.1" id="Layer_1" xmlns="http://www.w3.org/2000/svg" xmlns:xlink="http://www.w3.org/1999/xlink" x="0px" y="0px"
	 viewBox="0 0 363.6 223.1" style="enable-background:new 0 0 363.6 223.1;" xml:space="preserve">
<style type="text/css">
	.st0{fill:#ED1651;}
	.st1{fill-rule:evenodd;clip-rule:evenodd;fill:#FFFFFF;}
	.st2{fill:#FFFFFF;}
</style>
<rect x="-116.2" y="-308.7" class="st0" width="595.3" height="841.9"/>
<path class="st1" d="M141,161.1l13.7-30.1l0.3-0.6h1.3h6.7h1.3l0.3,0.6l13.5,30.1l0.4,0.9h-1.9h-6.2h-1.2l-0.3-0.6l-2.9-6.1h-12.8
	l-2.9,6.1l-0.3,0.6h-1.2h-6h-1.9L141,161.1z M159.6,140.5l-3.1,7.2h6.2L159.6,140.5z"/>
<path class="st1" d="M90.6,150.4l7.4,10.7l0.7,1h-2.2h-7.5H88l-0.4-0.5l-7.2-10.3h-0.6v10.1v0.7h-1.6h-6.7H70v-0.7v-30.2v-0.7h1.6
	h13.6c2.3,0,4.2,0.3,5.8,1c0.8,0.3,1.5,0.7,2.1,1.1v0c0.6,0.4,1.1,0.9,1.6,1.3c0.5,0.5,0.8,1,1.2,1.6v0c0.3,0.5,0.6,1.1,0.8,1.7
	c0.2,0.6,0.3,1.2,0.4,1.8c0.1,0.6,0.1,1.2,0.1,1.9c0,0.5,0,1-0.1,1.6c-0.1,0.5-0.2,1-0.3,1.6c-0.1,0.5-0.3,1-0.6,1.5
	c-0.2,0.5-0.5,1-0.8,1.4c-0.6,0.9-1.4,1.7-2.4,2.4c-0.5,0.4-1.1,0.7-1.7,0.9C91,150.2,90.8,150.3,90.6,150.4 M83.4,137h-3.6v7.6h3.6
	c0.3,0,0.6,0,0.9,0c0.3,0,0.6-0.1,0.8-0.1h0c0.4-0.1,0.7-0.2,1.1-0.4c0.2-0.1,0.4-0.3,0.5-0.4c0.2-0.2,0.3-0.4,0.5-0.7
	c0.1-0.3,0.2-0.6,0.3-0.9c0.1-0.3,0.1-0.8,0.1-1.2c0-0.5,0-0.9-0.1-1.3c-0.1-0.3-0.2-0.7-0.3-0.9c-0.1-0.3-0.3-0.5-0.5-0.7
	c-0.2-0.2-0.3-0.3-0.5-0.4c-0.3-0.2-0.7-0.3-1-0.4c-0.3,0-0.6-0.1-0.9-0.1C84,137,83.7,137,83.4,137z"/>
<path class="st1" d="M30.6,161.1L44.3,131l0.3-0.6h1.3h6.7h1.3L54,131l13.5,30.1l0.4,0.9h-1.9h-6.2h-1.2l-0.3-0.6l-2.9-6.1H42.5
	l-2.9,6.1l-0.3,0.6h-1.2h-6h-1.9L30.6,161.1z M49.2,140.5l-3.1,7.2h6.2L49.2,140.5z"/>
<path class="st1" d="M340.6,151.3c0,1,0.2,1.8,0.5,2.4h0c0.2,0.3,0.4,0.6,0.6,0.9c0.2,0.2,0.4,0.4,0.7,0.6c0.2,0.2,0.5,0.3,0.8,0.4
	c0.2,0.1,0.5,0.2,0.8,0.3c0.3,0.1,0.6,0.1,0.9,0.2l0,0c0.3,0,0.6,0.1,0.9,0.1c0.2,0,0.5,0,0.7,0c0.3,0,0.5,0,0.8-0.1
	c0.4-0.1,0.8-0.2,1.3-0.4c0.2-0.1,0.4-0.2,0.6-0.4c0.2-0.2,0.4-0.3,0.5-0.5c0.3-0.4,0.5-0.9,0.5-1.6c0-0.4-0.1-0.7-0.2-1
	c-0.1-0.3-0.3-0.5-0.5-0.7c-0.2-0.2-0.5-0.4-0.7-0.6c-0.3-0.2-0.6-0.3-0.9-0.5c-0.4-0.2-0.8-0.3-1.2-0.4c-0.4-0.1-0.9-0.2-1.3-0.4
	c-0.5-0.1-1.1-0.3-1.7-0.4c-0.5-0.1-1.1-0.3-1.6-0.4l0,0c-0.6-0.2-1.2-0.3-1.8-0.5c-0.6-0.2-1.2-0.4-1.7-0.6c-1.2-0.5-2.3-1-3.2-1.8
	c-0.5-0.4-0.9-0.8-1.3-1.2c-0.4-0.4-0.7-0.9-1-1.4c-0.3-0.5-0.5-1.1-0.6-1.7c-0.1-0.6-0.2-1.3-0.2-2c0-0.8,0.1-1.5,0.3-2.3v0
	c0.2-0.7,0.4-1.4,0.8-2c0.4-0.6,0.8-1.2,1.2-1.7c0.5-0.5,1-1,1.6-1.4c0.6-0.4,1.2-0.8,1.9-1.1c0.7-0.3,1.5-0.6,2.2-0.8l0,0
	c1.6-0.4,3.2-0.6,4.8-0.6c0.9,0,1.8,0.1,2.7,0.2c0.9,0.1,1.7,0.3,2.6,0.5c0.9,0.2,1.7,0.5,2.4,0.8c0.7,0.3,1.4,0.7,2,1.1
	c0.6,0.4,1.2,0.9,1.7,1.5c0.5,0.5,0.9,1.1,1.2,1.8c0.4,0.6,0.6,1.4,0.8,2.1l0,0.1l-9.3,2.8l0-0.4c0-0.4-0.1-0.8-0.2-1.2
	c-0.1-0.3-0.2-0.6-0.3-0.9c-0.1-0.3-0.3-0.5-0.5-0.7c-0.2-0.2-0.3-0.3-0.5-0.5c-0.2-0.1-0.4-0.2-0.6-0.3c-0.2-0.1-0.4-0.1-0.6-0.2
	c-0.3-0.1-0.5-0.1-0.8-0.1c-0.3,0-0.6,0-0.9,0c-0.3,0-0.6,0-1,0.1l0,0c-0.1,0-0.3,0.1-0.4,0.1c-0.1,0.1-0.3,0.1-0.4,0.2l0,0
	c-0.2,0.1-0.3,0.2-0.4,0.4c-0.1,0.1-0.3,0.3-0.4,0.5c-0.1,0.2-0.2,0.4-0.3,0.6c-0.1,0.2-0.1,0.5-0.1,0.8c0,0.5,0.1,0.9,0.3,1.2
	c0.1,0.1,0.2,0.2,0.3,0.3c0.2,0.1,0.3,0.2,0.6,0.3c0.3,0.1,0.6,0.3,1,0.4c0.4,0.1,0.9,0.3,1.4,0.4h0c0.6,0.2,1.3,0.4,2,0.5
	c0.7,0.2,1.5,0.4,2.5,0.7c0.2,0.1,0.5,0.1,0.6,0.2v0c0.3,0.1,0.6,0.1,0.8,0.2h0c0.3,0.1,0.7,0.2,1.1,0.3c0.3,0.1,0.7,0.2,1.1,0.4
	l0,0c0.4,0.2,0.8,0.3,1.1,0.5c0.4,0.2,0.7,0.4,1.1,0.6c0.4,0.2,0.7,0.5,1.1,0.8c0.3,0.3,0.6,0.6,0.9,0.9c0.3,0.3,0.6,0.7,0.8,1.1h0
	c0.2,0.4,0.4,0.8,0.6,1.3c0.2,0.5,0.3,0.9,0.4,1.5c0.1,0.5,0.1,1.1,0.1,1.6c0,0.7-0.1,1.4-0.2,2.1c-0.1,0.7-0.4,1.3-0.6,1.9
	c-0.3,0.6-0.6,1.2-1.1,1.8c-0.4,0.6-0.9,1.1-1.5,1.5c-0.6,0.5-1.2,0.9-2,1.3c-0.7,0.4-1.6,0.7-2.4,1l0,0c-0.9,0.3-1.9,0.5-3,0.6
	c-1,0.1-2.2,0.2-3.3,0.2c-1.9,0-3.8-0.2-5.6-0.7c-0.9-0.2-1.7-0.6-2.5-0.9c-0.8-0.4-1.5-0.8-2.1-1.3c-0.6-0.5-1.2-1-1.7-1.6
	c-0.5-0.6-1-1.2-1.3-1.9c-0.4-0.7-0.7-1.5-0.8-2.3l0-0.2l9.3-2.9V151.3z"/>
<path class="st1" d="M311.9,150v4.9h15.6v0.7v5.6v0.7h-23.5h-1.6v-0.7V131v-0.7h1.6h23.5v0.7v5.6v0.7h-15.6v5.3h12.2h1.5
	c0,1.3,0.1,7,0,7.4h-1.5H311.9z"/>
<polygon class="st1" points="264.6,130.4 273.2,130.4 273.8,130.4 279.8,148.8 285.4,131 285.6,130.4 287,130.4 295.7,130.4 
	297.3,130.4 297.3,131.1 297.3,161.3 297.3,162 295.7,162 290.1,162 288.5,162 288.5,161.3 288.5,148.7 284.2,161.4 283.9,162 
	282.6,162 277.5,162 276.2,162 276,161.4 271.6,148.8 271.6,161.3 271.6,162 270.1,162 264.6,162 263,162 263,161.3 263,131.1 
	263,130.4 "/>
<path class="st1" d="M260,146.1c0,2.2-0.4,4.3-1.3,6.2c-0.4,1-0.9,1.9-1.5,2.7c-0.6,0.8-1.2,1.6-2,2.4c-0.7,0.7-1.6,1.4-2.4,2
	c-0.9,0.6-1.9,1.1-2.9,1.6c-1.1,0.5-2.2,0.8-3.4,1c-1.2,0.2-2.4,0.4-3.7,0.4c-2.6,0-4.9-0.5-7.1-1.4c-1-0.4-2-1-2.9-1.6
	c-0.9-0.6-1.7-1.3-2.4-2c-0.7-0.7-1.4-1.5-2-2.4c-0.6-0.8-1.1-1.8-1.5-2.7c-0.4-1-0.7-2-0.9-3c-0.2-1.1-0.3-2.1-0.3-3.2
	c0-2.2,0.4-4.3,1.3-6.2c0.4-1,0.9-1.9,1.5-2.7c0.6-0.9,1.2-1.7,2-2.4c0.7-0.7,1.6-1.4,2.4-2c0.9-0.6,1.8-1.1,2.9-1.6
	c1.1-0.5,2.2-0.8,3.4-1.1h0c1.2-0.2,2.5-0.4,3.7-0.4c1.3,0,2.5,0.1,3.7,0.4c1.2,0.2,2.3,0.6,3.4,1c1,0.4,2,1,2.9,1.6
	c0.9,0.6,1.7,1.3,2.4,2c0.7,0.7,1.4,1.5,2,2.4c0.6,0.8,1.1,1.8,1.5,2.7c0.4,1,0.7,2,1,3C259.8,143.9,260,145,260,146.1 M242.8,137.6
	c-0.4,0-0.8,0-1.2,0.1c-0.4,0.1-0.9,0.2-1.3,0.4c-0.5,0.2-0.9,0.5-1.3,0.7c-0.4,0.3-0.8,0.6-1.2,1c-0.4,0.4-0.7,0.8-1,1.3
	c-0.3,0.5-0.6,1-0.8,1.5c-0.2,0.5-0.4,1.1-0.5,1.6c-0.1,0.6-0.2,1.1-0.2,1.8c0,0.6,0.1,1.2,0.2,1.8c0.1,0.6,0.3,1.1,0.5,1.6
	c0.2,0.5,0.5,1,0.8,1.5c0.3,0.5,0.7,0.9,1,1.3c0.4,0.4,0.8,0.7,1.2,1c0.4,0.3,0.9,0.5,1.3,0.7l0,0c0.4,0.2,0.9,0.3,1.3,0.4
	c0.4,0.1,0.8,0.1,1.2,0.1c0.4,0,0.8,0,1.2-0.1c0.4-0.1,0.8-0.2,1.3-0.4c0.5-0.2,0.9-0.5,1.3-0.7c0.4-0.3,0.8-0.6,1.2-1
	c0.8-0.8,1.4-1.7,1.8-2.7c0.2-0.5,0.4-1.1,0.5-1.6c0.1-0.6,0.2-1.1,0.2-1.8c0-0.6-0.1-1.2-0.2-1.8c-0.1-0.6-0.3-1.1-0.5-1.6
	c-0.2-0.5-0.5-1-0.8-1.5c-0.3-0.5-0.7-0.9-1-1.3c-0.4-0.4-0.8-0.7-1.2-1c-0.4-0.3-0.9-0.5-1.3-0.7c-0.4-0.2-0.8-0.3-1.3-0.4
	C243.6,137.6,243.2,137.6,242.8,137.6z"/>
<polygon class="st1" points="213,149.1 202.1,149.1 202.1,161.2 202.1,161.9 200.6,161.9 194.1,161.9 192.6,161.9 192.6,161.2 
	192.6,131 192.6,130.2 194.1,130.2 200.6,130.2 202.1,130.2 202.1,131 202.1,141.1 213,141.1 213,131 213,130.3 214.5,130.3 
	221,130.3 222.6,130.3 222.6,131 222.6,161.2 222.6,161.9 221,161.9 214.5,161.9 213,161.9 213,161.2 "/>
<polygon class="st1" points="19.2,162 21,162 21.9,162 22.1,162 22.2,162 23,162 23.2,162 23.3,162 24.3,162 24.5,161.4 38,131.3 
	38.4,130.4 37.4,130.4 37.3,130.4 36.5,130.4 36.4,130.4 35.5,130.4 35.4,130.4 34.5,130.4 30.3,130.4 29.3,130.4 29.2,130.4 
	29,130.4 28.3,130.4 28.1,130.4 28,130.4 27,130.4 26.7,131 18.3,150.8 18.2,150.7 18.2,162 "/>
<polygon class="st1" points="19.2,150.8 19.2,150.7 19.2,162 16.4,162 15.4,162 15.2,162 14.1,162 13.9,161.4 0.4,131.3 0,130.4 
	1.1,130.4 1.9,130.4 3,130.4 8.1,130.4 9.2,130.4 9.4,130.4 10.4,130.4 10.7,131 "/>
<polygon class="st1" points="105.4,130.4 114.1,130.4 114.7,130.4 120.6,148.8 126.3,131 126.5,130.4 127.9,130.4 136.6,130.4 
	138.1,130.4 138.1,131.1 138.1,161.3 138.1,162 136.6,162 131,162 129.4,162 129.4,161.3 129.4,148.7 125,161.4 124.8,162 
	123.5,162 118.4,162 117.1,162 116.9,161.4 112.5,148.8 112.5,161.3 112.5,162 110.9,162 105.4,162 103.9,162 103.9,161.3 
	103.9,131.1 103.9,130.4 "/>
<path class="st1" d="M139.2,59.3L111.6,0H164l15.7,33.8L139.2,59.3z M213.9,73.2l-4.2,9v0l-11.1,23.8h-37.6l-11.1-23.8v0l-4.2-9
	l34.1-21.4L213.9,73.2z M195.5,0H248l-27.6,59.3l-40.6-25.5L195.5,0z"/>
<path class="st1" d="M213.9,73.2l-4.2,9v0l-11.1,23.8h-18.8V51.8l0,0L213.9,73.2z M195.5,0H248l-27.6,59.3l-40.6-25.5L195.5,0z"/>
<path class="st2" d="M111.6,197.5c0,0.4,0,0.9-0.1,1.4c-0.1,0.5-0.2,1-0.3,1.4c-0.2,0.5-0.3,0.9-0.6,1.3c-0.2,0.4-0.5,0.7-0.8,0.9
	c0,0-0.1,0.1-0.1,0.1c0,0.1-0.1,0.1-0.2,0.1c-0.1,0-0.2,0-0.2,0.1c-0.1,0-0.2,0.1-0.3,0.1c-0.4,0-0.7-0.1-0.9-0.3
	c-0.2-0.2-0.3-0.5-0.4-0.8c-0.1-0.3-0.1-0.7-0.2-1.1c0-0.4,0-0.7-0.1-1.1c-0.1-0.1-0.1-0.2-0.2-0.3c-0.3,0-0.6,0.2-1,0.5
	c-0.4,0.4-0.8,0.8-1.2,1.4c-0.4,0.5-0.8,1.1-1.1,1.7c-0.4,0.6-0.7,1.1-0.9,1.5c-0.3,0.4-0.5,0.9-0.8,1.4c-0.2,0.5-0.5,1.1-0.7,1.5
	c-0.1,0.2-0.2,0.3-0.3,0.4c-0.1,0-0.2,0-0.2,0c-0.2,0-0.5,0-0.9,0.1c-0.4,0-0.6,0-0.8-0.3c-0.1-0.1-0.2-0.3-0.2-0.3
	c0-0.1-0.1-0.2-0.1-0.2c0-0.1,0-0.2,0-0.3c0-0.1,0-0.2,0-0.4c0-0.2,0-0.4,0.1-0.7c-0.3,0.3-0.7,0.7-1.1,1c-1.5,1-6.3,3.3-7.6,1
	c-0.2-0.3-0.3-0.6-0.3-1.1l0-0.1l-0.1,0.1c-0.3,0.3-0.6,0.5-0.9,0.6c-0.1,0-0.2,0.1-0.4,0.1c-2.2,0.7-5.2,0.8-6.6-1.3
	c-0.3-0.5-0.5-1-0.6-1.5c-0.1-0.6,0.1-1.2,0.3-1.7c0.4-0.8,1-1.1,1.8-0.8c0.1,0,0.2,0.1,0.3,0.1c0.1,0,0.2,0.1,0.2,0.1
	c0.4-0.5,0.3-3.8,0.3-4.6l0-0.4c-0.1,0.1-0.2,0.1-0.3,0.1c-0.1,0-0.1,0-0.2,0.1c-0.3,0.4-0.7,0.8-1.1,1.3c-1.9,2.5-5.3,7.3-7.6,8.6
	c-0.7,0.4-1.3,0.6-1.9,0.6c-0.2,0-0.4,0-0.6,0c-0.3,0-0.5-0.1-0.8-0.1c-0.3-0.1-0.5-0.2-0.8-0.3c-0.2-0.1-0.4-0.3-0.5-0.5l0.1-0.1
	l-0.2-0.1c-0.2-0.3-0.3-0.8-0.3-1.5c-0.1-0.7-0.1-1.4-0.2-2c0-0.7-0.1-1.3-0.2-1.8c-0.1-0.5-0.3-0.8-0.5-0.8s-0.5,0.2-0.8,0.5
	c-0.3,0.4-0.7,0.8-1.1,1.4c-0.4,0.5-0.8,1.1-1.2,1.8c-0.4,0.6-0.8,1.2-1.2,1.8c-0.4,0.5-0.7,1-1,1.4c-0.3,0.4-0.5,0.5-0.7,0.5
	c-0.2,0-0.5-0.1-0.7-0.2c-0.2-0.1-0.4-0.3-0.6-0.5c-0.2-0.2-0.3-0.4-0.5-0.7c-0.1-0.3-0.2-0.6-0.2-0.9c0-0.4,0.1-0.9,0.3-1.7
	l0.1-0.2c-0.5,0.2-0.9,0.3-1.4,0.4c-0.5,0.1-0.9,0.2-1.3,0.3c-0.4,0.1-0.7,0.1-0.9,0.2c-0.6,1-1.4,1.8-2.1,2.4
	c-0.8,0.6-1.7,0.9-2.7,0.9c-0.5,0-1-0.2-1.6-0.6c-0.6-0.4-1.1-0.9-1.6-1.4c-0.5-0.6-0.9-1.2-1.2-1.9c-0.3-0.7-0.5-1.4-0.5-2
	c0-0.3,0.1-0.8,0.2-1.3c0.1-0.6,0.3-1.2,0.5-1.8c0.2-0.6,0.5-1.3,0.8-2c0.3-0.7,0.6-1.3,0.9-1.8c0.3-0.5,0.6-1,0.9-1.3
	c0.3-0.3,0.6-0.5,0.9-0.5c0.1,0,0.4,0,0.6,0c0.3,0,0.6,0.1,0.8,0.2c0.3,0.1,0.5,0.2,0.7,0.4c0.2,0.2,0.3,0.4,0.3,0.7
	c0,0.3-0.1,0.6-0.3,1.1c-0.2,0.5-0.4,0.9-0.6,1.4c-0.2,0.5-0.4,0.9-0.6,1.3c-0.2,0.4-0.3,0.7-0.3,0.8c-0.3,0.9-0.6,1.8-0.8,2.8
	c-0.2,1-0.3,2-0.3,3c0,0.3,0.1,0.7,0.2,1c0.1,0.4,0.3,0.5,0.6,0.5c0.7,0,1.3-0.2,1.9-0.7c0.6-0.5,1.1-1.1,1.4-1.7
	c-0.5-0.3-1-0.7-1.3-1.4c-0.4-0.7-0.6-1.3-0.6-2.1c0-0.4,0.1-0.9,0.3-1.3c0.2-0.5,0.5-0.9,0.8-1.3c0.3-0.4,0.6-0.7,1-1
	c0.3-0.3,0.7-0.4,1-0.4c0.6,0,1.1,0.3,1.4,0.9c0.3,0.6,0.5,1.2,0.5,2c0,0.5,0,0.9,0,1.3c0,0.4-0.1,0.8-0.3,1.3
	c0.9,0,1.8-0.1,2.5-0.4c0.3-0.1,0.7-0.3,1-0.5c0.3-0.8,0.6-1.7,1-2.5c0.4-1,0.8-1.8,1.2-2.6c0.4-0.8,0.7-1.4,1-2
	c0.3-0.5,0.5-0.8,0.7-0.8c0.1,0,0.3,0.1,0.4,0.3c0.1,0.2,0.3,0.4,0.4,0.6c0.1,0.2,0.2,0.5,0.3,0.7c0.1,0.3,0.1,0.5,0.2,0.6
	c-0.2,1-0.5,1.9-0.8,2.8c-0.3,0.9-0.5,1.8-0.8,2.8c0.3-0.2,0.6-0.5,1-0.9c0.4-0.3,0.9-0.6,1.4-0.9c0.5-0.3,1-0.5,1.4-0.7
	c0.5-0.2,0.8-0.3,1.2-0.3c0.7,0,1.2,0.2,1.6,0.6c0.4,0.4,0.7,0.9,0.8,1.5c0.2,0.6,0.3,1.3,0.3,2c0,0.7,0.1,1.4,0.1,2.1l0.2,0.4
	c0.5,0,1-0.2,1.5-0.7c3.4-3.4,5.9-7.9,8.3-12.1c0.2-0.4,0.5-0.7,0.7-0.9c0.2-0.2,0.5-0.4,0.8-0.4c0.4,0,0.8,0.1,1.1,0.3
	c0.3,0.3,0.5,0.7,0.6,1.3c0,0.1,0,0.3,0,0.7c0,0.3,0,0.6,0,0.9c0,0.8,0,1.5,0,2.1c-0.1,1.2-0.2,2.4-0.4,3.6
	c-0.1,0.9-0.8,3.6-0.1,4.5c0.1,0.1,0.3,0.2,0.4,0.3c0.2,0,0.3,0.1,0.4,0.1c3.9-1,4.3-4.6,5.4-8.2c0,0,0-0.1-0.1-0.2
	c-0.3,0-0.7-0.1-1-0.1c-0.4,0-0.7-0.2-1-0.5c-0.1-0.1-0.3-0.3-0.5-0.6c-0.2-0.3-0.3-0.6-0.4-0.9c-0.1-0.3-0.2-0.7-0.3-1
	c-0.1-0.4-0.1-0.6-0.1-0.9c0-0.4,0.1-0.6,0.2-0.7c0.1-0.1,0.3-0.1,0.5-0.1l4.2,0.5c0.2-0.5,0.4-1,0.5-1.6c0.2-0.6,0.3-1.1,0.5-1.6
	c0.3-0.9,0.7-2,1.1-3.1c0.4-1.1,0.8-2.2,1.2-3.2c0.1-0.3,0.3-0.7,0.4-1.1c0.2-0.5,0.4-0.9,0.6-1.3c0.2-0.4,0.5-0.8,0.8-1.1
	c0.3-0.3,0.6-0.5,1-0.5c0.4,0,0.9,0.2,1.3,0.5c0.4,0.3,0.6,0.8,0.6,1.4c0,0.3-0.1,0.7-0.3,1.2c-0.2,0.5-0.4,1-0.6,1.5
	c-0.2,0.5-0.5,1-0.7,1.4c-0.2,0.4-0.3,0.7-0.4,0.8c-0.5,1.1-1,2.2-1.5,3.3l-0.2,0.4l0,0c0,0.1-0.6,1.4-1.3,3.1l3.6-0.5
	c0.1,0,0.3,0,0.3,0c0.1,0,0.2,0.1,0.3,0.4c0,0.1-0.1,0.3-0.2,0.5c-0.1,0.2-0.2,0.4-0.3,0.5c-0.5,0.6-0.9,1-1.3,1.4
	c-0.4,0.3-0.8,0.7-1.3,0.9c-1.4,0.6-2.8,0.8-2.8,0.8c-1,2.4-3,6.7-3.3,8.6c0,0.3,0.1,0.5,0.2,0.6c1.5,1.4,4.5-0.7,5.7-2.3
	c0.3-0.5,0.8-0.6,1.2-0.6l0.1,0c0.1-0.3,0.2-0.6,0.3-1c0.2-0.7,0.4-1.4,0.6-2c0.2-0.6,0.4-1.1,0.5-1.6c0.1-0.4,0.3-0.7,0.3-0.8
	c0.1-0.1,0.2-0.4,0.3-0.9c0.1-0.4,0.3-0.9,0.5-1.4c0.2-0.5,0.5-0.9,0.7-1.3c0.3-0.4,0.6-0.6,0.9-0.6c0.2,0,0.3,0.1,0.5,0.2
	c0.2,0.1,0.3,0.3,0.5,0.5c0.1,0.2,0.3,0.4,0.4,0.6c0.1,0.2,0.1,0.5,0.1,0.7c0,0.3,0,0.6-0.1,0.9c-0.1,0.3-0.2,0.7-0.3,1
	c-0.1,0.4-0.2,0.7-0.4,1c-0.1,0.3-0.2,0.6-0.3,0.9c-0.1,0.3-0.2,0.7-0.3,1.1c-0.1,0.4-0.2,0.8-0.3,1.2v0c0,0,0,0.1,0.1,0.1
	c0.5-0.7,1.1-1.3,1.5-1.9c0.5-0.6,1-1.2,1.4-1.7c0.5-0.5,0.9-0.9,1.4-1.3c0.5-0.3,1-0.5,1.4-0.5c0.6,0,1,0.2,1.4,0.6
	C111.4,196.3,111.6,196.8,111.6,197.5 M138.5,201.3c0,0.1,0,0.3-0.1,0.7c-0.1,0.4-0.1,0.7-0.2,0.9c-0.2,0.8-0.6,1.5-1.2,2.2
	c-0.6,0.6-1.2,1.1-1.9,1.5c-0.7,0.4-1.4,0.7-2,0.9c-0.7,0.2-1.3,0.3-1.8,0.3h-0.5c-0.1,0-0.3,0-0.5-0.1c-0.2-0.1-0.4-0.2-0.6-0.3
	c-0.2-0.1-0.4-0.2-0.6-0.3c-0.2-0.1-0.3-0.2-0.4-0.3c-0.2-0.2-0.4-0.4-0.5-0.7c-0.2-0.3-0.3-0.6-0.4-0.9l-0.1-0.2
	c-0.3,0.5-0.6,1-1,1.5c-0.4,0.5-0.8,0.9-1.2,1.3c-1.3,1.1-3.7,2.2-5.2,0.8c-0.5-0.5-0.8-1-1-1.7c-0.1,0.2-0.3,0.4-0.6,0.6
	c-0.3,0.2-0.5,0.4-0.8,0.5c-0.3,0.2-0.6,0.3-0.9,0.4c-0.3,0.1-0.6,0.1-0.8,0.1c-0.1,0-0.4,0-0.7-0.1c-0.3-0.1-0.7-0.2-1-0.3
	c-2.1-0.8-2.6-3.5-2.2-5.6c0.1-0.6,0.3-1.2,0.4-1.9c0.2-0.7,0.4-1.4,0.6-2.1c0.2-0.7,0.4-1.4,0.6-2c0.2-0.6,0.4-1.1,0.6-1.5
	c0.2-0.4,0.3-0.7,0.4-0.8c0.2-0.3,0.4-0.4,0.4-0.4c0.1,0,0.2,0,0.4,0c0,0,0.1,0,0.3,0.1c0.2,0,0.4,0.1,0.6,0.2
	c1,0.4,1.6,1.6,1.4,2.5c-0.5,1.9-2.8,6.9-2.8,8.1c0,0.3,0,0.6,0.1,0.8c0.1,0.2,0.2,0.3,0.3,0.4c0.1,0.1,0.3,0.2,0.4,0.2
	c0.1,0,0.3,0,0.4,0c0.5,0,1-0.2,1.4-0.6c0.4-0.4,0.8-0.9,1.1-1.5c0.3-0.6,0.6-1.2,0.8-1.8c0.2-0.6,0.4-1.1,0.5-1.4
	c0-0.1,0.1-0.4,0.2-0.6c0.1-0.3,0.2-0.6,0.3-0.9c0.1-0.3,0.3-0.7,0.4-1c0.1-0.4,0.3-0.7,0.3-1c0.1-0.2,0.2-0.5,0.3-0.7
	c0.1-0.3,0.2-0.5,0.3-0.8c0.1-0.2,0.3-0.4,0.4-0.6c0.2-0.2,0.3-0.3,0.5-0.3c0.3,0,0.6,0.1,0.8,0.3c0.3,0.2,0.5,0.5,0.6,0.7
	c0.2,0.3,0.3,0.6,0.4,0.9c0.1,0.3,0.2,0.6,0.2,0.8c0,0.4,0,0.8-0.1,1c-0.1,0.3-0.2,0.7-0.4,1.1c-0.3,0.7-0.6,1.5-1,2.2
	c-0.3,0.8-0.7,1.5-1,2.3c0,0,0,0.1-0.1,0.2c0,0.1-0.1,0.2-0.1,0.3c-0.1,0.2-0.1,0.4-0.2,0.5c0,0.1-0.1,0.3-0.1,0.4
	c-0.1,0.3-0.1,0.6-0.2,0.9c0.7,2.3,4.9-1.9,5.6-4.5c0.1-0.4,0.2-0.8,0.3-1.2c0.3-0.9,0.7-1.8,1.2-2.6c0.5-0.8,1-1.6,1.7-2.4
	c0.6-0.7,1.3-1.4,1.9-1.9c0.6-0.6,1.3-1,1.9-1.3c0.6-0.3,1.1-0.5,1.6-0.5c0.2,0,0.5,0,0.7,0.1c0.2,0.1,0.5,0.2,0.7,0.4
	c0.2,0.2,0.4,0.4,0.5,0.7c0.1,0.3,0.2,0.6,0.2,1c0,0.4-0.1,0.7-0.2,1.1c-0.2,0.4-0.4,0.7-0.6,0.9c-0.2,0.3-0.5,0.5-0.7,0.7
	c-0.3,0.2-0.5,0.3-0.7,0.3c-0.1,0-0.3,0-0.4-0.1c-0.2-0.1-0.3-0.2-0.5-0.3c-0.2-0.1-0.3-0.2-0.4-0.3c-0.1-0.1-0.2-0.1-0.2-0.1
	c-0.4,0-0.9,0.3-1.5,0.8c-0.6,0.5-1.2,1.1-1.7,1.8c-0.6,0.7-1,1.5-1.4,2.2c-0.1,0.1-0.1,0.2-0.2,0.3c0,0.2-0.1,0.4-0.2,0.6l-0.1,0.2
	c-0.1,0.3-0.1,0.5-0.1,0.8c0.1,0.2,0.3,0.3,0.5,0.3c0.2,0,0.4,0,0.6,0h0.9c0.1,0,0.3,0,0.7-0.1c0.4-0.1,0.7-0.2,1-0.3
	c0.5-0.1,1-0.3,1.6-0.5c0.6-0.2,1.2-0.4,1.7-0.7c0.1,0,0.3-0.1,0.5-0.2c0.2-0.1,0.4-0.2,0.6-0.3c0.2-0.1,0.4-0.2,0.5-0.3
	c0.2-0.1,0.3-0.1,0.3-0.1h0.5C138.5,200.9,138.5,201.1,138.5,201.3z M157.1,190.8c0,0.6-0.1,1-0.3,1.4c-0.2,0.4-0.4,0.7-0.7,1
	c-0.3,0.3-0.6,0.5-0.9,0.6c-0.3,0.1-0.6,0.2-0.9,0.2c-0.7,0-1.4-0.3-1.9-0.9s-0.8-1.3-0.8-2.2c0-0.5,0.1-0.9,0.2-1.4
	c0.1-0.4,0.3-0.8,0.6-1.2c0.2-0.3,0.5-0.6,0.8-0.8c0.3-0.2,0.7-0.3,1-0.3h0.3c0.4,0,0.7,0.1,1,0.3c0.3,0.2,0.6,0.5,0.8,0.8
	c0.2,0.3,0.4,0.7,0.5,1.1C157,190.1,157.1,190.5,157.1,190.8z M178.9,211.2c0.3-0.7-7.1,3-6.3,6.7
	C173.1,220.2,174.4,221.2,178.9,211.2z M191.1,201.2c0,0.9,0.2,1.6-0.2,2.3c-1.6,2.7-6,5.1-7.6,5.5c-0.5,0.7-0.9,1.7-1.3,2.5
	c-1,1.8-2,3.4-2.8,5.2c-0.5,1.2-1,2.2-1.6,3.2c-1,1.7-2.5,3.7-4.7,3.2c-1.1-0.3-2-0.5-2.7-1.6c-0.9-1.5-0.6-4-0.1-5.5
	c1.6-4.3,6-6.7,10-8.3c0.3-0.4,0.5-1.2,0.7-1.7c0.5-1.2,0.9-2.6,1.2-3.9c-0.1-0.1,0-0.2-0.2-0.2c-0.2,0-3.3,2.2-3.7,2.5
	c-0.8,0.6-3.6,2.5-4.5,2.5c-0.7,0-1.1-0.7-1.3-1.3c-0.9,1-2.6,2.2-3.9,2.2c-0.8,0-2.3-0.2-2.7-1l0.1-0.1l-0.2-0.1
	c-0.4-0.7-0.4-2.6-0.5-3.5c-0.2-3.4-0.7-3.4-2.6-0.7c-1.2,1.6-2.1,3.4-3.3,4.9c-0.5,0.6-0.7,0.7-1.4,0.4c-0.9-0.5-1.4-1.4-1.3-2.4
	c-0.6,0.5-1.4,0.9-2.1,1.2c-0.5,0.2-3,1.4-3.4,1.4c-0.6,0-2.4-1.1-2.4-1.5l0-0.5c-0.6,0.3-1.2,0.6-1.4,0.8c-1.4,0.9-5.4,2.9-7.1,1.5
	l-0.2-0.2c-2.1-2.1,1.4-10.7,2.1-12.1c-0.3,0-0.4-0.1-0.8-0.1c-0.4,0-0.7-0.2-1-0.5c-0.1-0.1-0.3-0.3-0.5-0.6
	c-0.2-0.3-0.3-0.6-0.4-0.9c-0.1-0.3-0.2-0.7-0.3-1c-0.1-0.4-0.1-0.6-0.1-0.9c0-0.4,0.1-0.6,0.2-0.7c0.1-0.1,0.3-0.1,0.5-0.1l4.2,0.5
	c0.2-0.5,0.4-1,0.5-1.6c0.2-0.6,0.3-1.1,0.5-1.6c0.3-0.9,0.7-2,1.1-3.1c0.4-1.1,0.8-2.2,1.2-3.2c0.1-0.3,0.3-0.7,0.4-1.1
	c0.2-0.5,0.4-0.9,0.6-1.3c0.2-0.4,0.5-0.8,0.8-1.1c0.3-0.3,0.6-0.5,1-0.5c0.4,0,0.9,0.2,1.3,0.5c0.4,0.3,0.6,0.8,0.6,1.4
	c0,0.3-0.1,0.7-0.3,1.2c-0.2,0.5-0.4,1-0.6,1.5c-0.2,0.5-0.4,1-0.7,1.4c-0.2,0.4-0.3,0.7-0.4,0.8c-0.5,1.1-1,2.2-1.5,3.3l-0.2,0.4
	l0,0c0,0.1-0.6,1.4-1.3,3.1l3.6-0.5c0.1,0,0.3,0,0.3,0c0.1,0,0.2,0.1,0.3,0.4l-0.2,0.6c-0.1,0.2-0.2,0.3-0.3,0.4
	c-0.5,0.6-0.9,1-1.3,1.4c-0.4,0.3-0.8,0.7-1.3,0.9c-1.4,0.6-2.8,0.8-2.8,0.8c-1,2.4-3,6.7-3.3,8.6c0,0.3,0.1,0.5,0.2,0.6
	c1.5,1.4,5.5-1.3,6.6-2.9c0.3-1.5,1.2-4.7,2.5-5.6c0.1-0.1,0.3,0,0.4,0c1.7,0,2.5,2.8,2.5,4.2c0,1.1-1.3,2.9-1.7,4
	c0.1,0.1,0.3,0,0.5,0c1.9,0,3.8-2.1,4.7-3.7c0.6-1.7,1.3-3.4,2.1-5.1c0.2-0.4,1.3-2.7,1.7-2.7c0.6,0,1.1,1.7,1.2,2.2
	c-0.4,1.9-1.1,3.7-1.5,5.5c1-1,2.5-1.9,3.8-2.5c1.8-0.8,3.1,0,3.6,1.8c0.4,1.3,0.4,2.8,0.4,4.1l0.2,0.4c1.1,0,2.2-1.4,2.8-2.3
	c0.7-2.4,3.3-5.5,5.2-7c0.8-0.6,1-0.6,1.9-0.9c0.8-0.3,1.5-0.2,2.1,0.6c0.6,0.8,0.7,1.5,0.4,2.5c-0.2,0.7-0.9,0.9-1.5,1.1
	c-0.4,0.1-0.7,0.3-1.1,0.5c-1.2,0.6-2.7,2.5-3.1,3.8c0,0.1,0,0.1,0.1,0.1l7.3-3.4c0.7-0.1,2.1,0.8,1.8,1.7l-0.8,4.1
	c3.1-0.7,4.7-4.3,5.3-5.5c0.1-0.1,0.3-0.1,0.4-0.1C190.8,199.9,191.1,200.6,191.1,201.2z M275,190.8c0,0.6-0.1,1-0.3,1.4
	c-0.2,0.4-0.4,0.7-0.7,1c-0.3,0.3-0.6,0.5-0.9,0.6c-0.3,0.1-0.6,0.2-0.9,0.2c-0.7,0-1.4-0.3-1.9-0.9s-0.8-1.3-0.8-2.2
	c0-0.5,0.1-0.9,0.2-1.4c0.1-0.4,0.3-0.8,0.6-1.2c0.2-0.3,0.5-0.6,0.8-0.8c0.3-0.2,0.7-0.3,1-0.3h0.3c0.4,0,0.7,0.1,1,0.3
	c0.3,0.2,0.6,0.5,0.8,0.8c0.2,0.3,0.4,0.7,0.5,1.1C275,190.1,275,190.5,275,190.8z M296.8,195.2c-1.1,0.5-2.3,1.9-3.1,3
	c1.1,0.2,3.3-1,3.9-1.5C299,195.5,298,194.7,296.8,195.2z M266.6,204.8l-0.1,0.2c-0.3,0.4-0.5,0.6-0.5,0.6c-1,0.8-1.9,1.4-2.7,1.7
	c-0.8,0.3-1.6,0.4-2.4,0.4c-0.2,0-0.4,0-0.6,0c-0.2,0-0.5-0.1-0.7-0.2c-0.3-0.1-0.5-0.2-0.7-0.3c-0.2-0.1-0.4-0.3-0.6-0.6
	c-0.1-0.2-0.3-0.5-0.4-0.9c-0.1-0.4-0.2-0.7-0.2-0.9c0-0.2,0.1-0.5,0.3-0.8s0.4-0.8,0.6-1.2c0.2-0.4,0.4-0.9,0.6-1.3
	c0.2-0.5,0.3-0.9,0.3-1.3c0-0.6-0.1-1.1-0.4-1.6c-0.3-0.5-0.6-1-0.9-1.5c-0.1,0.1-0.2,0.3-0.3,0.5c-1.6,4.5-3.7,9.4-5.9,13.7
	c-0.7,1.4-1.4,2.7-2.2,4.1c-0.7,1.4-1.4,2.7-2.1,4.1c-0.1,0.2-0.2,0.4-0.4,0.5c-0.1,0.1-0.2,0.1-0.3,0.1c-0.1,0-0.2-0.1-0.3-0.2
	c-0.1-0.2-0.1-0.3-0.2-0.4l4.7-13.5c-0.8,0.6-1.5,1-2.2,1.3c-0.8,0.3-1.6,0.4-2.4,0.4c-0.2,0-0.4,0-0.6,0c-0.2,0-0.5-0.1-0.7-0.2
	c-0.3-0.1-0.5-0.2-0.7-0.3c-0.2-0.1-0.4-0.3-0.6-0.6c-0.1-0.2-0.3-0.5-0.4-0.9c-0.1-0.4-0.2-0.7-0.2-0.9c0-0.2,0.1-0.5,0.3-0.8
	c0.2-0.4,0.4-0.8,0.6-1.2c0.2-0.4,0.4-0.9,0.6-1.3c0.2-0.5,0.3-0.9,0.3-1.3c0-0.6-0.1-1.1-0.4-1.6c-0.3-0.5-0.6-1-0.9-1.5
	c-0.1,0.1-0.2,0.3-0.3,0.5c-1.6,4.5-3.7,9.4-5.9,13.7c-0.7,1.4-1.4,2.7-2.2,4.1c-0.7,1.4-1.4,2.7-2.1,4.1c-0.1,0.2-0.2,0.4-0.4,0.5
	c-0.1,0.1-0.2,0.1-0.3,0.1c-0.1,0-0.2-0.1-0.3-0.2c-0.1-0.2-0.1-0.3-0.2-0.4l3.8-11.1c-0.4,0.3-0.7,0.5-1.1,0.7
	c-0.5,0.2-1,0.4-1.4,0.4c-0.6,0-1.1-0.1-1.6-0.4c-0.5-0.2-0.9-0.6-1.3-1c-0.4-0.4-0.7-0.9-0.9-1.5c-0.2-0.6-0.3-1.2-0.3-1.9
	c0,0,0-0.2,0.1-0.5c0-0.3,0.1-0.5,0.1-0.9c0-0.3,0.1-0.7,0.2-1c0.1-0.3,0.1-0.6,0.2-0.8c-0.2,0.2-0.5,0.5-0.9,0.8
	c-0.4,0.4-0.8,0.8-1.3,1.2c-0.5,0.4-1,0.9-1.5,1.4c-0.5,0.5-1.1,0.9-1.6,1.3c-0.5,0.4-1,0.7-1.4,0.9c-0.4,0.2-0.8,0.4-1.1,0.4
	c-0.3,0-0.6-0.1-0.9-0.3c-0.3-0.2-0.5-0.5-0.6-0.9c-0.2-0.3-0.3-0.7-0.4-1.1c-0.1-0.4-0.1-0.8-0.1-1.1c0-0.3,0-0.6,0-0.9
	c0-0.3,0.1-0.7,0.3-1.2c0.2-0.5,0.5-1.1,0.9-1.8c0.4-0.7,0.8-1.4,1.3-2.1c0.5-0.7,0.9-1.4,1.4-2c0.5-0.7,0.9-1.2,1.3-1.6
	c0.4-0.5,1-0.9,1.5-1.2c0.6-0.4,1.1-0.5,1.6-0.5c0.3,0,0.6,0.1,0.9,0.3c0.3,0.2,0.6,0.4,0.8,0.7c0.2,0.3,0.4,0.6,0.6,1
	c0.1,0.4,0.2,0.7,0.2,1.1c0,0.3-0.1,0.5-0.2,0.6c-0.1,0.1-0.2,0.2-0.4,0.2c-0.1,0-0.3,0.1-0.4,0.1c-0.1,0-0.3,0-0.4,0.1
	c-0.5,0.3-1,0.7-1.7,1.3c-0.6,0.6-1.2,1.2-1.8,1.9c-0.6,0.7-1.2,1.4-1.7,2.2c-0.5,0.8-0.9,1.5-1.2,2.2c0,0,0.1,0.1,0,0.1
	c0,0,0,0,0.1,0c0.1,0,0.2,0,0.3-0.1c0.1-0.1,0.2-0.1,0.3-0.2c0.5-0.2,1.1-0.5,1.7-1c0.6-0.4,1.2-0.9,1.9-1.4c0.6-0.5,1.3-1,1.9-1.6
	c0.6-0.5,1.2-1,1.7-1.5c0.6-0.5,1.1-0.8,1.6-0.8c0.2,0,0.4,0.1,0.7,0.2c0.2,0.1,0.5,0.3,0.7,0.6c0.2,0.2,0.4,0.5,0.5,0.8
	c0.1,0.3,0.2,0.6,0.2,0.9c0,0.1,0,0.2-0.1,0.4c0,0.2-0.1,0.3-0.1,0.4c-0.3,0.6-0.5,1.2-0.8,1.8c-0.3,0.6-0.5,1.2-0.7,1.9
	c-0.1,0.2-0.1,0.4-0.1,0.7c0,0.3,0,0.5,0,0.6c0,0.1,0,0.3,0,0.5c0,0.2,0.1,0.3,0.3,0.3c0.1,0,0.1,0,0,0.1c0,0.1,0,0.1,0.1,0.1h1.2
	c0.2,0,0.5-0.2,0.9-0.6c0.4-0.4,0.8-0.9,1.2-1.4c0.4-0.5,0.8-1,1.1-1.5l0.1-0.1l3.4-9.7c0-0.1-0.1-0.2-0.3-0.4
	c-0.1-0.2-0.3-0.3-0.5-0.5c-0.2-0.2-0.3-0.4-0.5-0.6c-0.1-0.2-0.2-0.4-0.2-0.5c0-0.2,0.1-0.4,0.2-0.4c0.1-0.1,0.3-0.1,0.3-0.1
	c0.3,0,0.5,0.1,0.7,0.3c0.2,0.2,0.5,0.4,0.7,0.6c0.1,0,0.1,0,0.1-0.1c0.1-0.4,0.2-0.8,0.4-1.2c0.1-0.4,0.3-0.8,0.4-1.2
	c0,0,0.1-0.2,0.2-0.7c0.1-0.4,0.3-0.9,0.6-1.5c0.2-0.5,0.5-1,0.8-1.5c0.3-0.4,0.6-0.7,0.9-0.7c0.3,0,0.5,0.1,0.8,0.3
	c0.2,0.2,0.4,0.5,0.6,0.8c0.2,0.3,0.3,0.6,0.4,1c0.1,0.3,0.2,0.6,0.2,0.8c0,0.5-0.1,1-0.3,1.5c-0.2,0.5-0.4,1-0.6,1.4
	c-0.2,0.6-0.5,1.2-0.7,1.8c-0.3,0.6-0.5,1.2-0.7,1.8c0.5,0.5,1,1,1.5,1.6c0.5,0.6,1,1.2,1.4,1.8c0.4,0.6,0.8,1.3,1.1,2
	c0.3,0.7,0.4,1.4,0.4,2.1c0,0.1,0,0.3-0.1,0.6c0,0.3-0.1,0.6-0.2,0.9c0.1,0,0.2,0,0.2-0.1c0.1-0.1,0.1-0.1,0.2-0.1
	c0.6,0,1.2-0.2,1.7-0.6c0.5-0.4,1-0.8,1.4-1.3c0.2-0.3,0.4-0.5,0.6-0.7l2.5-7.2c0-0.1-0.1-0.2-0.3-0.4c-0.1-0.2-0.3-0.3-0.5-0.5
	c-0.2-0.2-0.3-0.4-0.5-0.6c-0.1-0.2-0.2-0.4-0.2-0.5c0-0.2,0.1-0.4,0.2-0.4c0.1-0.1,0.3-0.1,0.3-0.1c0.3,0,0.5,0.1,0.7,0.3
	c0.2,0.2,0.5,0.4,0.7,0.6c0.1,0,0.1,0,0.1-0.1c0.1-0.4,0.2-0.8,0.4-1.2c0.1-0.4,0.3-0.8,0.4-1.2c0,0,0.1-0.2,0.2-0.7
	c0.1-0.4,0.3-0.9,0.6-1.5c0.2-0.5,0.5-1,0.8-1.5c0.3-0.4,0.6-0.7,0.9-0.7c0.3,0,0.5,0.1,0.8,0.3c0.2,0.2,0.4,0.5,0.6,0.8
	c0.2,0.3,0.3,0.6,0.4,1c0.1,0.3,0.2,0.6,0.2,0.8c0,0.5-0.1,1-0.3,1.5c-0.2,0.5-0.4,1-0.6,1.4c-0.2,0.6-0.5,1.2-0.7,1.8
	c-0.3,0.6-0.5,1.2-0.7,1.8c0.5,0.5,1,1,1.5,1.6c0.5,0.6,1,1.2,1.4,1.8c0.4,0.6,0.8,1.3,1.1,2c0.3,0.7,0.4,1.4,0.4,2.1
	c0,0.1,0,0.3-0.1,0.6c0,0.3-0.1,0.6-0.2,0.9c0.1,0,0.2,0,0.2-0.1c0.1-0.1,0.1-0.1,0.2-0.1c0.6,0,1.2-0.2,1.7-0.6
	c0.5-0.4,1-0.8,1.4-1.3c0.2-0.3,0.5-0.6,0.6-0.9c0.1-0.3,0.2-0.6,0.3-1c0.3-0.8,0.6-1.6,0.9-2.3c0.3-0.7,0.7-1.2,1.1-1.5
	c0.1,0,0.1-0.1,0.2-0.1c0.1,0,0.1,0,0.2,0c0.4,0,0.8,0.2,1.1,0.5c0.3,0.3,0.6,0.7,0.8,1.1c0.2,0.4,0.4,0.9,0.5,1.4
	c0.1,0.5,0.2,0.9,0.2,1.3c0,0.3-0.1,0.6-0.2,0.9c-0.1,0.4-0.3,0.7-0.5,1.1c-0.2,0.4-0.4,0.8-0.6,1.1c-0.2,0.4-0.3,0.6-0.4,0.8
	c0.1,0,0.1,0.1,0.2,0.1c0.1,0,0.2,0,0.3,0c0.4,0,0.9-0.1,1.4-0.3c0.5-0.2,0.9-0.5,1.4-0.9c0.4-0.4,0.9-0.9,1.3-1.4
	c0.2-0.3,0.5-0.6,0.7-1c0.3-0.8,0.6-1.6,0.9-2.4c0.4-1,0.8-1.8,1.2-2.6c0.4-0.8,0.7-1.4,1-2c0.3-0.5,0.5-0.8,0.7-0.8
	c0.1,0,0.3,0.1,0.4,0.3c0.1,0.2,0.3,0.4,0.4,0.6c0.1,0.2,0.2,0.5,0.3,0.7c0.1,0.3,0.1,0.5,0.2,0.6c-0.2,1-0.5,1.9-0.8,2.8
	c-0.3,0.9-0.5,1.8-0.8,2.8c0.3-0.2,0.6-0.5,1-0.9c0.4-0.3,0.9-0.6,1.4-0.9c0.5-0.3,1-0.5,1.4-0.7c0.5-0.2,0.8-0.3,1.2-0.3
	c0.7,0,1.2,0.2,1.6,0.6c0.4,0.4,0.7,0.9,0.8,1.5c0.2,0.6,0.3,1.3,0.3,2c0,0.7,0.1,1.4,0.1,2.1l0.2,0.4c0.5,0,1-0.2,1.5-0.7
	c0.5-0.5,0.9-1,1.3-1.6c0.2-0.3,0.5-0.7,0.6-1c0-0.2,0.1-0.4,0.1-0.6c0,0-0.1-0.1-0.1,0c0,0-0.1,0.1-0.2,0.1c-0.1,0-0.2,0-0.3-0.1
	c-0.1-0.1-0.2-0.2-0.3-0.3c0-0.2,0-0.5,0.1-0.7c0.1-0.3,0.3-0.5,0.4-0.7c0.1-0.1,0.3-0.2,0.5-0.2c0.2,0,0.4-0.1,0.5-0.3
	c0.2-0.3,0.5-0.7,0.8-1.2c0.3-0.6,0.6-1.1,1-1.5c0.8-1,1.6-1.8,2.4-2.3c0.9-0.5,3.8-1.4,4.6-1.4c0.3,0,0.5,0,0.8,0.1
	c1.6,0.4,1.6,2.6,0.8,3.8c-0.3,0.5-0.8,1-1.3,1.4c-1.1,0.8-3.8,2.5-7.4,3c-0.2,0.1-0.4,0.4-0.7,0.8c-0.1,0.2-0.2,0.4-0.2,0.6
	c0,0.1,0,0.2-0.1,0.4c0,0.1,0,0.1,0,0.2c0,0.5,0.2,0.9,0.5,1.2c0.3,0.3,0.7,0.5,1.1,0.6c2.7,0.7,5.7-0.5,8-2.1
	c0.5-0.8,2.1-2.9,2.4-3.2c0.2-0.3,0.4-0.6,0.6-0.9c1.1-1.5,2-3,2.9-4.6c0.3-0.6,0.6-1,0.8-1.4c0.2-0.4,0.5-0.7,0.7-0.9
	c0.2-0.2,0.5-0.4,0.8-0.4c0.4,0,0.8,0.1,1.1,0.3c0.3,0.3,0.5,0.7,0.6,1.3c0,0.1,0,0.3,0,0.7c0,0.3,0,0.6,0,0.9c0,0.8,0,1.5,0,2.1
	c0,0.7-0.1,1.3-0.2,1.9c-0.1,0.6-0.2,1.2-0.3,1.8c-0.1,0.6-0.2,1.2-0.3,1.9c0,0.1,0,0.2,0,0.4c0,0.2,0,0.3,0,0.5c0,0.2,0,0.3,0,0.4
	c0,0.1,0,0.2,0,0.3c0,0.1,0,0.3,0.1,0.5c0.1,0.2,0.1,0.4,0.2,0.5c0.1,0.1,0.3,0.2,0.4,0.3c0.2,0,0.3,0.1,0.4,0.1
	c0.5-0.1,1.1-0.2,1.5-0.4c0.1-0.1,0.2-0.1,0.3-0.2c1.2-1.1,6.2-8.9,7-10.3c0.3-0.6,0.6-1,0.8-1.4c0.2-0.4,0.5-0.7,0.7-0.9
	c0.2-0.2,0.5-0.4,0.8-0.4c0.4,0,0.8,0.1,1.1,0.3c0.3,0.3,0.5,0.7,0.6,1.3c0,0.1,0,0.3,0,0.7c0,0.3,0,0.6,0,0.9c0,0.8,0,1.5,0,2.1
	c0,0.7-0.1,1.3-0.2,1.9c-0.1,0.6-0.2,1.2-0.3,1.8c-0.1,0.6-0.2,1.2-0.3,1.9c0,0.1,0,0.2,0,0.4c0,0.2,0,0.3,0,0.5c0,0.2,0,0.3,0,0.4
	c0,0.1,0,0.2,0,0.3c0,0.1,0,0.3,0.1,0.5c0.1,0.2,0.1,0.4,0.2,0.5c0.1,0.1,0.3,0.2,0.4,0.3c0.2,0,0.3,0.1,0.4,0.1
	c0.1,0,0.3-0.1,0.5-0.1c0.2-0.1,0.5-0.1,0.7-0.1c0.1,0,0.2-0.1,0.3-0.2c0.1-0.1,0.2-0.1,0.3-0.2c0.2-0.2,0.4-0.4,0.6-0.6
	c0.2-0.3,0.4-0.5,0.7-0.8c0.1-0.2,0.2-0.4,0.3-0.7c0.1-0.3,0.2-0.5,0.4-0.7c0.1-0.1,0.1-0.2,0.2-0.2c0.1,0,0.2,0,0.3,0
	c0.2,0,0.4,0.1,0.5,0.3c0.1,0.2,0.2,0.4,0.2,0.5c0,0.1,0,0.3,0,0.6c0,0.3-0.1,0.5-0.2,0.6c-0.2,0.4-0.4,0.9-0.7,1.3
	c-0.3,0.5-0.6,0.9-0.9,1.3c-1.9,2.7-7,3.3-8.8,0.6c-0.3-0.5-0.5-1-0.6-1.5c-0.1-0.6,0.1-1.2,0.3-1.7c0.3-0.5,0.7-0.9,1.1-0.9
	c0.1,0,0.2,0,0.3,0c0.1,0,0.3,0,0.4,0.1c0.1,0,0.2,0.1,0.3,0.1c0.1,0,0.2,0.1,0.2,0.1c0.1-0.1,0.2-0.4,0.2-0.8
	c0-0.4,0.1-0.9,0.1-1.3c0-0.5,0-1,0-1.4c0-0.5,0-0.8,0-1l0-0.4c-0.1,0.1-0.2,0.1-0.3,0.1c-0.1,0-0.1,0-0.2,0.1
	c-0.3,0.4-0.7,0.8-1.1,1.3c-0.4,0.5-0.7,1-1.1,1.5c-0.4,0.5-0.7,1-1.1,1.5c-1,1.3-1.8,2.3-2.8,3.7c-1.9,2.7-7,3.3-8.8,0.6
	c-0.3-0.5-0.5-1-0.6-1.5c-0.1-0.6,0.1-1.2,0.3-1.7c0.3-0.5,0.7-0.9,1.1-0.9c0.1,0,0.2,0,0.3,0c0.1,0,0.3,0,0.4,0.1
	c0.1,0,0.2,0.1,0.3,0.1c0.1,0,0.2,0.1,0.2,0.1c0.1-0.1,0.2-0.4,0.2-0.8c0-0.4,0.1-0.9,0.1-1.3c0-0.5,0-1,0-1.4c0-0.5,0-0.8,0-1
	l0-0.4c-0.1,0.1-0.2,0.1-0.3,0.1c-0.1,0-0.1,0-0.2,0.1c-0.3,0.4-0.7,0.8-1.1,1.3c-0.4,0.5-0.7,1-1.1,1.5c-0.4,0.5-0.7,1-1.1,1.5
	c-0.4,0.5-0.7,1-1,1.4c-0.1,0.1-0.1,0.2-0.3,0.2c-0.6,0.9-1.7,2-2.2,2.3c-0.6,0.4-1.2,0.7-1.8,1c-0.6,0.3-1.2,0.5-1.8,0.6
	c-1.9,0.5-3.6,1-5.3-0.2c-0.3-0.2-0.5-0.4-0.7-0.6c-0.2-0.2-0.4-0.3-0.4-0.4c-0.3-0.4-0.5-0.8-0.6-1.1c-0.2,0.3-0.5,0.6-0.7,0.8
	c-0.6,0.6-1.3,1.2-2,1.6c-0.7,0.4-1.3,0.6-1.9,0.6c-0.2,0-0.4,0-0.6,0c-0.3,0-0.5-0.1-0.8-0.1c-0.3-0.1-0.5-0.2-0.8-0.3
	c-0.2-0.1-0.4-0.3-0.5-0.5l0.1-0.1l-0.2-0.1c-0.2-0.3-0.3-0.8-0.3-1.5c-0.1-0.7-0.1-1.4-0.2-2c0-0.7-0.1-1.3-0.2-1.8
	c-0.1-0.5-0.3-0.8-0.5-0.8c-0.2,0-0.5,0.2-0.8,0.5c-0.3,0.4-0.7,0.8-1.1,1.4c-0.4,0.5-0.8,1.1-1.2,1.8c-0.4,0.6-0.8,1.2-1.2,1.8
	c-0.4,0.5-0.7,1-1,1.4c-0.3,0.4-0.5,0.5-0.7,0.5c-0.2,0-0.5-0.1-0.7-0.2c-0.2-0.1-0.4-0.3-0.6-0.5c-0.2-0.2-0.3-0.4-0.5-0.7
	c-0.1-0.3-0.2-0.6-0.2-0.9c0-0.1,0-0.2,0-0.3c-0.1,0.1-0.1,0.1-0.2,0.2c-0.2,0.1-4.9,2.3-4.9,2.3c-0.1,0-0.2,0.1-0.3,0.1
	c-0.5,0-0.9-0.2-1.4-0.6c-0.5-0.4-0.8-1-1.1-1.7c0-0.1-0.1-0.2,0-0.3C266.6,205,266.6,204.9,266.6,204.8z M223.6,184.7
	c0,0.3-0.1,0.6-0.2,1c-0.1,0.4-0.2,0.8-0.4,1c-0.3,0.5-0.7,1-1.1,1.7c-0.4,0.6-0.8,1.3-1.2,2c-0.4,0.7-0.8,1.4-1.1,2.1
	c-0.4,0.7-0.7,1.4-1,2c0.3,0,0.6,0.1,0.9,0c0.3,0,0.6,0,1,0l0,0c0,0,0.1,0.1,0.1,0.2c0,0.2-0.1,0.4-0.3,0.7
	c-0.2,0.3-0.5,0.5-0.7,0.7c-0.3,0.2-0.5,0.5-0.8,0.6c-0.3,0.2-0.4,0.3-0.5,0.3c-0.1,0-0.3,0.1-0.4,0.1c-0.2,0-0.3,0.1-0.4,0.3
	c-0.1,0.1-0.2,0.4-0.4,1c-0.2,0.6-0.4,1.3-0.7,2c-0.2,0.7-0.4,1.5-0.6,2.2c-0.2,0.7-0.3,1.3-0.3,1.6c0,0.1,0,0.2,0,0.3
	c0,0.1,0.1,0.2,0.2,0.2c0.1,0,0.2,0,0.5-0.1c0.2-0.1,0.4-0.1,0.5-0.1c0.2,0,0.4,0.1,0.7,0.3c0.3,0.2,0.4,0.4,0.4,0.7
	c0,0.4-0.1,0.7-0.2,1c-0.1,0.3-0.3,0.5-0.6,0.7c-0.2,0.2-0.5,0.3-0.7,0.4c-0.2,0.1-0.5,0.1-0.6,0.1c-0.4,0-0.7-0.1-0.9-0.3
	c-0.2-0.2-0.4-0.5-0.6-0.9c-0.1-0.3-0.3-0.7-0.3-1.1c-0.1-0.4-0.1-0.7-0.1-1c0-0.4,0.1-0.8,0.2-1.4c0.1-0.6,0.2-1.2,0.4-1.8
	c0.1-0.6,0.3-1.2,0.4-1.6c0.1-0.5,0.2-0.7,0.2-0.8v-0.3l-5,1.1c-0.6,0-1.1,0.1-1.7,0.1c-0.6,0-1.1,0.1-1.6,0.3
	c-0.1,0-0.2,0.3-0.3,0.7c-0.1,0.4-0.3,1-0.5,1.6c-0.2,0.7-0.5,1.4-0.7,2.1c-0.3,0.8-0.5,1.5-0.8,2.1c-0.3,0.6-0.6,1.2-0.8,1.6
	c-0.3,0.4-0.6,0.7-0.8,0.7c-0.3,0-0.5-0.1-0.7-0.4c-0.2-0.3-0.3-0.6-0.3-0.8c0-0.2,0-0.5,0.1-0.8c0.1-0.3,0.2-0.6,0.3-0.9
	c0.1-0.3,0.2-0.5,0.4-0.8c0.1-0.2,0.2-0.4,0.3-0.5c0.1-0.3,0.2-0.6,0.3-1c0.1-0.4,0.3-0.8,0.5-1.2c0.2-0.4,0.4-0.8,0.5-1.3
	c0.2-0.4,0.3-0.8,0.5-1.2c-0.1,0-0.1-0.1-0.2,0c-0.1,0-0.2,0.1-0.3,0.1c-0.3,0-0.6-0.2-0.9-0.5c-0.3-0.3-0.5-0.7-0.8-1.2
	c-0.2-0.5-0.4-1-0.5-1.5c-0.1-0.5-0.2-1-0.2-1.3c0-0.4,0.1-0.7,0.2-1c0.1-0.3,0.4-0.4,0.8-0.4c0,0,0.2,0,0.5,0.1
	c0.3,0,0.6,0.1,1,0.1c0.4,0,0.8,0.1,1.2,0.1c0.4,0,0.8,0.1,1.1,0.1c0.4-1.4,0.8-2.7,0.9-3.8c0.2-1.1,0.3-2.3,0.4-3.5
	c-0.1-0.1-0.2-0.2-0.3-0.2c-0.1-0.1-0.2-0.1-0.3-0.1c-0.1,0-0.1,0-0.1,0.1c0,0,0,0.1-0.1,0.1c-0.5,0.1-1,0.4-1.5,0.8
	c-0.5,0.4-1.1,0.9-1.8,1.5c0,0-0.1,0.1-0.3,0.1c-0.1,0-0.2,0-0.3,0c-0.1-0.1-0.2-0.2-0.3-0.4c-0.1-0.2-0.1-0.4-0.2-0.7
	c0-0.2-0.1-0.5-0.1-0.7c0-0.2,0-0.4,0-0.5c0-0.7,0.1-1.4,0.3-2c0.2-0.6,0.4-1.2,0.7-1.6c0.3-0.5,0.7-0.8,1.1-1.1
	c0.4-0.3,0.9-0.4,1.5-0.4c0.5,0,1,0.2,1.4,0.7c0.4,0.5,0.8,1.1,1.1,1.7c0.3,0.7,0.5,1.3,0.7,2c0.1,0.7,0.2,1.2,0.2,1.6
	c0,0.5-0.1,1-0.2,1.6c-0.1,0.6-0.2,1.2-0.4,1.8c-0.1,0.6-0.3,1.1-0.4,1.6c-0.1,0.5-0.2,0.9-0.3,1.1v0.3h6c0.2,0,0.4,0,0.6,0
	c0.2,0,0.4,0,0.6,0c0.2,0,0.4-0.1,0.5-0.1c0.1-0.1,0.2-0.2,0.3-0.3c0.2-0.8,0.5-1.7,0.8-2.8c0.3-1,0.7-2.1,1.1-3.2
	c0-0.1,0.2-0.5,0.4-1.2c0.2-0.7,0.5-1.4,0.8-2.1c0.3-0.8,0.7-1.4,1.2-2c0.4-0.6,0.9-0.9,1.4-0.9c0.3,0,0.5,0.1,0.8,0.2
	c0.2,0.2,0.5,0.4,0.6,0.6c0.2,0.2,0.3,0.5,0.4,0.8C223.6,184.1,223.6,184.4,223.6,184.7z M48.4,186.6c0,0.1,0,0.3,0,0.7
	c0,0.3-0.1,0.6-0.1,0.8c-0.2,1-1.3,2.4-2.3,1.3c-0.6-0.6-0.8-3-2.5-2.9c-0.2,0-0.3,0-0.4,0c-0.3,0-0.6,0-0.9,0.1
	c-3.6,0.9-6.5,4-8.1,7.1c-1.9,3.6-2,7.3,0.2,8.2c4.8,1.9,11.4-4,13.3-4c0.1,0,0.2,0,0.3,0.1c0.1,0.1,0.2,0.2,0.3,0.2
	c0.1,0.3,0,0.8-0.1,1.3c-0.1,0.6-0.3,1-0.5,1.4c-0.5,0.9-1.2,1.8-1.9,2.5c-0.8,0.7-1.5,1.4-2.4,1.9c-2.3,1.5-7.2,3.3-9.9,1.8
	c-0.7-0.4-1.3-0.9-1.7-1.6c-3.8-5.3,0-12.8,3.7-17.1c1.1-1.3,2.2-2.4,3.4-3.3c1.2-1,2.4-1.7,3.5-2.3c1.2-0.6,2.3-0.9,3.3-0.9
	c0.5,0,1,0.1,1.4,0.4c0.4,0.3,0.7,0.7,1,1.1c0.3,0.4,0.4,0.9,0.6,1.5C48.3,185.6,48.4,186.1,48.4,186.6z"/>
<path class="st2" d="M359.6,132.5v-4.2h0.8l1,3c0.1,0.3,0.2,0.5,0.2,0.6c0-0.2,0.1-0.4,0.2-0.7l1-3h0.8v4.2h-0.5v-3.6l-1.2,3.6h-0.5
	l-1.2-3.6v3.6H359.6z M357.1,132.5v-3.7h-1.4v-0.5h3.4v0.5h-1.4v3.7H357.1z"/>
</svg>
