<?xml version="1.0" encoding="utf-8"?>
<!-- Generator: Adobe Illustrator 25.0.0, SVG Export Plug-In . SVG Version: 6.00 Build 0)  -->
<svg version="1.1" id="Layer_1" xmlns="http://www.w3.org/2000/svg" xmlns:xlink="http://www.w3.org/1999/xlink" x="0px" y="0px"
	 viewBox="0 0 52 52" style="enable-background:new 0 0 52 52;" xml:space="preserve">
<style type="text/css">
	.st0{fill:#ED1651;}
	.st1{fill:none;stroke:#ED1651;stroke-width:2;stroke-miterlimit:10;}
</style>
<path class="st0" d="M35.7,28.8c-0.6-0.6-1.4-1-2.2-1s-1.5,0.3-2.2,1l-0.2,0.2c-0.6,0.6-1.3,1.2-1.9,1.9c-0.1-0.1-0.2-0.1-0.4-0.2
	c-0.3-0.1-0.6-0.3-0.8-0.4c-1.9-1.2-3.6-2.8-5.3-4.8c-0.8-1-1.4-1.9-1.8-2.7c0.5-0.5,1.1-1.1,1.6-1.6l0.4-0.4c1.3-1.3,1.3-3.1,0-4.4
	c-0.4-0.4-0.8-0.8-1.2-1.2c-0.2-0.2-0.4-0.4-0.5-0.5c-0.2-0.2-0.4-0.4-0.6-0.6c-0.4-0.4-0.8-0.8-1.2-1.2c-0.6-0.6-1.4-1-2.2-1
	s-1.5,0.3-2.2,1c-0.3,0.3-0.6,0.6-0.9,0.9c-0.4,0.4-0.9,0.9-1.3,1.3c-0.8,0.8-1.3,1.8-1.4,3c-0.1,1.8,0.4,3.5,0.8,4.8
	c1,2.8,2.6,5.5,4.9,8.1c2.8,3.3,6.2,6,10,7.8c2.1,1,3.9,1.6,5.7,1.7c0.1,0,0.3,0,0.4,0c1.5,0,2.7-0.5,3.7-1.6
	c0.4-0.4,0.8-0.9,1.3-1.3c0.2-0.2,0.5-0.5,0.7-0.7c1.3-1.3,1.3-3.1,0-4.4C38.1,31.1,36.9,29.9,35.7,28.8z M38.1,35.5
	c-0.2,0.2-0.5,0.4-0.7,0.7c-0.5,0.4-0.9,0.9-1.4,1.4c-0.7,0.8-1.5,1.1-2.7,1c-1.5-0.1-3.2-0.6-5.1-1.5c-3.6-1.8-6.8-4.3-9.4-7.4
	c-2.1-2.5-3.6-5-4.6-7.6c-0.6-1.6-0.8-2.9-0.7-4c0.1-0.8,0.3-1.4,0.9-1.9c0.5-0.4,0.9-0.9,1.3-1.3c0.3-0.3,0.6-0.6,0.9-0.9
	c0.2-0.2,0.6-0.5,1-0.5s0.8,0.3,1,0.5c0.4,0.4,0.8,0.8,1.2,1.2c0.2,0.2,0.4,0.4,0.6,0.6c0.2,0.2,0.4,0.4,0.5,0.5
	c0.4,0.4,0.8,0.8,1.2,1.2c0.7,0.7,0.7,1.3,0,2l-0.4,0.4c-0.6,0.6-1.2,1.2-1.8,1.7c-0.3,0.3-0.6,0.8-0.3,1.5c0.5,1.1,1.1,2.2,2.1,3.4
	c1.8,2.2,3.7,3.9,5.7,5.2c0.3,0.2,0.6,0.4,1,0.5c0.2,0.1,0.4,0.2,0.5,0.3c0.2,0.1,0.4,0.2,0.7,0.2l0,0c0.4,0,0.7-0.1,1-0.4
	c0.7-0.7,1.3-1.4,2-2l0.2-0.2c0.2-0.2,0.6-0.5,1-0.5c0.4,0,0.8,0.3,1,0.5c1.1,1.1,2.3,2.3,3.5,3.5C38.7,34.1,38.7,34.8,38.1,35.5z"
	/>
<circle class="st1" cx="26" cy="26" r="22.7"/>
</svg>
