<?xml version="1.0" encoding="utf-8"?>
<!-- Generator: Adobe Illustrator 25.0.0, SVG Export Plug-In . SVG Version: 6.00 Build 0)  -->
<svg version="1.1" id="Capa_1" xmlns="http://www.w3.org/2000/svg" xmlns:xlink="http://www.w3.org/1999/xlink" x="0px" y="0px"
	 viewBox="0 0 52 52" style="enable-background:new 0 0 52 52;" xml:space="preserve">
<style type="text/css">
	.st0{fill:#2CB742;}
	.st1{fill:#FFFFFF;}
</style>
<g>
	<path class="st0" d="M4.5,47.5l3.7-11.1c-1.9-3.2-3-6.8-3-10.8C5.2,14,14.7,4.5,26.4,4.5S47.5,14,47.5,25.6S38,46.8,26.4,46.8
		c-3.6,0-6.9-0.9-9.8-2.4L4.5,47.5z"/>
	<path class="st1" d="M39.9,32.7c-1-1.8-4.6-4-4.6-4c-0.8-0.5-1.8-0.5-2.3,0.3c0,0-1.2,1.4-1.5,1.6c-1.4,0.9-2.6,0.9-3.9-0.4l-3-3
		l-3-3c-1.3-1.3-1.3-2.5-0.4-3.9C21.6,20.2,23,19,23,19c0.8-0.5,0.8-1.4,0.3-2.3c0,0-2.1-3.6-4-4.6c-0.8-0.4-1.7-0.3-2.4,0.4
		l-1.3,1.3c-4.1,4.1-2.1,8.8,2,12.9l3.8,3.8l3.8,3.8c4.1,4.1,8.8,6.2,12.9,2l1.3-1.3C40.1,34.4,40.3,33.4,39.9,32.7z"/>
</g>
</svg>
